<svg width="28" height="28" viewBox="0 0 28 28" fill="none" xmlns="http://www.w3.org/2000/svg">
<path d="M18.5 22.3333C15.0977 22.3289 11.8361 20.9754 9.43029 18.5697C7.02453 16.1639 5.67104 12.9023 5.66663 9.49999C5.66663 8.48333 6.07049 7.50831 6.78938 6.78942C7.50827 6.07053 8.4833 5.66666 9.49996 5.66666C9.71524 5.66502 9.93017 5.68456 10.1416 5.72499C10.3461 5.75524 10.547 5.80548 10.7416 5.87499C10.8785 5.92302 11.0005 6.00594 11.0955 6.11555C11.1905 6.22517 11.2552 6.35768 11.2833 6.49999L12.425 11.5C12.4557 11.6357 12.452 11.777 12.4142 11.9109C12.3763 12.0448 12.3056 12.1671 12.2083 12.2667C12.1 12.3833 12.0916 12.3917 11.0666 12.925C11.8875 14.7257 13.3276 16.1718 15.125 17C15.6666 15.9667 15.675 15.9583 15.7916 15.85C15.8912 15.7527 16.0135 15.682 16.1474 15.6441C16.2813 15.6063 16.4226 15.6026 16.5583 15.6333L21.5583 16.775C21.696 16.807 21.8234 16.8734 21.9284 16.9682C22.0333 17.063 22.1125 17.1829 22.1583 17.3167C22.2286 17.5145 22.2816 17.718 22.3166 17.925C22.3502 18.1344 22.3669 18.3462 22.3666 18.5583C22.3513 19.5706 21.936 20.5358 21.2116 21.243C20.4872 21.9503 19.5124 22.3422 18.5 22.3333ZM9.49996 7.33333C8.926 7.33552 8.37617 7.5645 7.97032 7.97035C7.56447 8.37621 7.33549 8.92603 7.33329 9.49999C7.3355 12.4609 8.51269 15.2999 10.6064 17.3936C12.7 19.4873 15.5391 20.6645 18.5 20.6667C19.0739 20.6645 19.6237 20.4355 20.0296 20.0296C20.4355 19.6238 20.6644 19.074 20.6666 18.5V18.225L16.8 17.3333L16.5583 17.7917C16.1833 18.5167 15.9083 19.0417 15.2083 18.7583C13.8274 18.264 12.5739 17.4684 11.5389 16.4291C10.5039 15.3898 9.71348 14.133 9.22496 12.75C8.92496 12.1 9.49163 11.8 10.2083 11.425L10.6666 11.2L9.77496 7.33333H9.49996Z" fill="#005BC1" fill-opacity="0.6"/>
<circle cx="14" cy="14" r="13" stroke="#005BC1" stroke-opacity="0.6" stroke-width="2"/>
</svg>
