<svg width="28" height="28" viewBox="0 0 28 28" fill="none" xmlns="http://www.w3.org/2000/svg">
<circle cx="14" cy="14" r="14" fill="white"/>
<path d="M18.5001 22.3328C15.0978 22.3284 11.8362 20.9749 9.43042 18.5691C7.02465 16.1633 5.67116 12.9017 5.66675 9.49944C5.66675 8.48278 6.07062 7.50776 6.78951 6.78887C7.50839 6.06998 8.48342 5.66611 9.50008 5.66611C9.71537 5.66447 9.93029 5.68401 10.1417 5.72444C10.3462 5.75469 10.5471 5.80494 10.7417 5.87444C10.8786 5.92247 11.0006 6.00539 11.0956 6.115C11.1906 6.22462 11.2553 6.35713 11.2834 6.49944L12.4251 11.4994C12.4559 11.6352 12.4521 11.7764 12.4143 11.9103C12.3765 12.0443 12.3057 12.1666 12.2084 12.2661C12.1001 12.3828 12.0917 12.3911 11.0667 12.9244C11.8876 14.7252 13.3277 16.1712 15.1251 16.9994C15.6667 15.9661 15.6751 15.9578 15.7917 15.8494C15.8913 15.7522 16.0136 15.6814 16.1475 15.6436C16.2814 15.6057 16.4227 15.602 16.5584 15.6328L21.5584 16.7744C21.6962 16.8064 21.8235 16.8729 21.9285 16.9677C22.0335 17.0624 22.1126 17.1823 22.1584 17.3161C22.2288 17.5139 22.2817 17.7175 22.3167 17.9244C22.3503 18.1339 22.367 18.3457 22.3667 18.5578C22.3514 19.5701 21.9362 20.5352 21.2117 21.2425C20.4873 21.9497 19.5125 22.3417 18.5001 22.3328ZM9.50008 7.33278C8.92612 7.33497 8.3763 7.56395 7.97044 7.9698C7.56459 8.37566 7.33561 8.92548 7.33341 9.49944C7.33562 12.4604 8.51282 15.2994 10.6065 17.393C12.7002 19.4867 15.5392 20.6639 18.5001 20.6661C19.074 20.6639 19.6239 20.4349 20.0297 20.0291C20.4356 19.6232 20.6646 19.0734 20.6667 18.4994V18.2244L16.8001 17.3328L16.5584 17.7911C16.1834 18.5161 15.9084 19.0411 15.2084 18.7578C13.8275 18.2635 12.574 17.4678 11.539 16.4285C10.5041 15.3892 9.7136 14.1324 9.22508 12.7494C8.92508 12.0994 9.49175 11.7994 10.2084 11.4244L10.6667 11.1994L9.77508 7.33278H9.50008Z" fill="#005BC1" fill-opacity="0.6"/>
<circle cx="14" cy="14" r="13" stroke="#005BC1" stroke-opacity="0.6" stroke-width="2"/>
</svg>
