<svg width="28" height="28" viewBox="0 0 28 28" fill="none" xmlns="http://www.w3.org/2000/svg">
<path d="M11.4688 11.4688C12.1771 10.7604 13.0312 10.4062 14.0312 10.4062C15.0312 10.4062 15.875 10.7604 16.5625 11.4688C17.2708 12.1562 17.625 13 17.625 14C17.625 15 17.2708 15.8542 16.5625 16.5625C15.875 17.25 15.0312 17.5938 14.0312 17.5938C13.0312 17.5938 12.1771 17.25 11.4688 16.5625C10.7812 15.8542 10.4375 15 10.4375 14C10.4375 13 10.7812 12.1562 11.4688 11.4688ZM12.375 15.6562C12.8333 16.1146 13.3854 16.3438 14.0312 16.3438C14.6771 16.3438 15.2292 16.1146 15.6875 15.6562C16.1458 15.1979 16.375 14.6458 16.375 14C16.375 13.3542 16.1458 12.8021 15.6875 12.3438C15.2292 11.8854 14.6771 11.6562 14.0312 11.6562C13.3854 11.6562 12.8333 11.8854 12.375 12.3438C11.9167 12.8021 11.6875 13.3542 11.6875 14C11.6875 14.6458 11.9167 15.1979 12.375 15.6562ZM18.3438 9.6875C18.5104 9.83333 18.5938 10.0208 18.5938 10.25C18.5938 10.4792 18.5104 10.6771 18.3438 10.8438C18.1979 11.0104 18.0104 11.0938 17.7812 11.0938C17.5521 11.0938 17.3542 11.0104 17.1875 10.8438C17.0208 10.6771 16.9375 10.4792 16.9375 10.25C16.9375 10.0208 17.0208 9.83333 17.1875 9.6875C17.3542 9.52083 17.5521 9.4375 17.7812 9.4375C18.0104 9.4375 18.1979 9.52083 18.3438 9.6875ZM21 11.125C21.0208 11.6875 21.0312 12.6458 21.0312 14C21.0312 15.3542 21.0208 16.3125 21 16.875C20.9375 18.1458 20.5521 19.1354 19.8438 19.8438C19.1562 20.5312 18.1771 20.8958 16.9062 20.9375C16.3438 20.9792 15.3854 21 14.0312 21C12.6771 21 11.7188 20.9792 11.1562 20.9375C9.88542 20.875 8.90625 20.5 8.21875 19.8125C7.94792 19.5625 7.72917 19.2708 7.5625 18.9375C7.39583 18.6042 7.27083 18.2812 7.1875 17.9688C7.125 17.6562 7.09375 17.2917 7.09375 16.875C7.05208 16.3125 7.03125 15.3542 7.03125 14C7.03125 12.6458 7.05208 11.6771 7.09375 11.0938C7.15625 9.84375 7.53125 8.875 8.21875 8.1875C8.90625 7.47917 9.88542 7.09375 11.1562 7.03125C11.7188 7.01042 12.6771 7 14.0312 7C15.3854 7 16.3438 7.01042 16.9062 7.03125C18.1771 7.09375 19.1562 7.47917 19.8438 8.1875C20.5521 8.875 20.9375 9.85417 21 11.125ZM19.5 18.125C19.5625 17.9583 19.6146 17.75 19.6562 17.5C19.6979 17.2292 19.7292 16.9167 19.75 16.5625C19.7708 16.1875 19.7812 15.8854 19.7812 15.6562C19.7812 15.4271 19.7812 15.1042 19.7812 14.6875C19.7812 14.2708 19.7812 14.0417 19.7812 14C19.7812 13.9375 19.7812 13.7083 19.7812 13.3125C19.7812 12.8958 19.7812 12.5729 19.7812 12.3438C19.7812 12.1146 19.7708 11.8229 19.75 11.4688C19.7292 11.0938 19.6979 10.7812 19.6562 10.5312C19.6146 10.2604 19.5625 10.0417 19.5 9.875C19.25 9.22917 18.8021 8.78125 18.1562 8.53125C17.9896 8.46875 17.7708 8.41667 17.5 8.375C17.25 8.33333 16.9375 8.30208 16.5625 8.28125C16.2083 8.26042 15.9167 8.25 15.6875 8.25C15.4792 8.25 15.1562 8.25 14.7188 8.25C14.3021 8.25 14.0729 8.25 14.0312 8.25C13.9896 8.25 13.7604 8.25 13.3438 8.25C12.9271 8.25 12.6042 8.25 12.375 8.25C12.1458 8.25 11.8438 8.26042 11.4688 8.28125C11.1146 8.30208 10.8021 8.33333 10.5312 8.375C10.2812 8.41667 10.0729 8.46875 9.90625 8.53125C9.26042 8.78125 8.8125 9.22917 8.5625 9.875C8.5 10.0417 8.44792 10.2604 8.40625 10.5312C8.36458 10.7812 8.33333 11.0938 8.3125 11.4688C8.29167 11.8229 8.28125 12.1146 8.28125 12.3438C8.28125 12.5521 8.28125 12.875 8.28125 13.3125C8.28125 13.7292 8.28125 13.9583 8.28125 14C8.28125 14.0833 8.28125 14.2812 8.28125 14.5938C8.28125 14.8854 8.28125 15.1354 8.28125 15.3438C8.28125 15.5312 8.28125 15.7812 8.28125 16.0938C8.30208 16.4062 8.32292 16.6771 8.34375 16.9062C8.36458 17.1146 8.39583 17.3333 8.4375 17.5625C8.47917 17.7917 8.52083 17.9792 8.5625 18.125C8.83333 18.7708 9.28125 19.2188 9.90625 19.4688C10.0729 19.5312 10.2812 19.5833 10.5312 19.625C10.8021 19.6667 11.1146 19.6979 11.4688 19.7188C11.8438 19.7396 12.1354 19.75 12.3438 19.75C12.5729 19.75 12.8958 19.75 13.3125 19.75C13.75 19.75 13.9896 19.75 14.0312 19.75C14.0938 19.75 14.3229 19.75 14.7188 19.75C15.1354 19.75 15.4583 19.75 15.6875 19.75C15.9167 19.75 16.2083 19.7396 16.5625 19.7188C16.9375 19.6979 17.25 19.6667 17.5 19.625C17.7708 19.5833 17.9896 19.5312 18.1562 19.4688C18.8021 19.1979 19.25 18.75 19.5 18.125Z" fill="#E5E5E5"/>
<circle cx="14" cy="14" r="13" stroke="#E5E5E5" stroke-width="2"/>
</svg>
