<svg width="28" height="28" viewBox="0 0 28 28" fill="none" xmlns="http://www.w3.org/2000/svg">
<path d="M22.0312 10.6875C21.9688 11 21.7188 11.5104 21.2812 12.2188C20.8646 12.9271 20.4792 13.5521 20.125 14.0938C19.7708 14.6146 19.5833 14.8854 19.5625 14.9062C19.4375 15.0938 19.375 15.2292 19.375 15.3125C19.375 15.3958 19.4375 15.5417 19.5625 15.75C19.5625 15.75 19.625 15.8229 19.75 15.9688C19.8958 16.1146 20.0625 16.2812 20.25 16.4688C20.4375 16.6562 20.6458 16.875 20.875 17.125C21.1042 17.375 21.3125 17.625 21.5 17.875C21.7083 18.1042 21.8854 18.3438 22.0312 18.5938C22.1979 18.8438 22.3125 19.0521 22.375 19.2188C22.5208 19.7396 22.3125 20 21.75 20H19.9062C19.7604 20 19.6354 19.9792 19.5312 19.9375C19.4271 19.8958 19.3125 19.8229 19.1875 19.7188C19.0625 19.6146 18.9479 19.5 18.8438 19.375C18.7396 19.25 18.5833 19.0729 18.375 18.8438C18.1667 18.6146 17.9583 18.3958 17.75 18.1875C16.9167 17.3958 16.3021 17 15.9062 17C15.6562 17 15.5104 17.0729 15.4688 17.2188C15.4271 17.3646 15.4062 17.7812 15.4062 18.4688C15.4271 18.8021 15.4375 19.0729 15.4375 19.2812C15.4375 19.5312 15.3542 19.7188 15.1875 19.8438C15.0208 19.9479 14.6562 20 14.0938 20C13.1146 20 12.125 19.7083 11.125 19.125C10.125 18.5417 9.25 17.7083 8.5 16.625C7.79167 15.6667 7.19792 14.7188 6.71875 13.7812C6.26042 12.8229 5.95833 12.0938 5.8125 11.5938C5.66667 11.0938 5.59375 10.7396 5.59375 10.5312C5.59375 10.1771 5.80208 10 6.21875 10H8.0625C8.29167 10 8.45833 10.0521 8.5625 10.1562C8.6875 10.2604 8.79167 10.4479 8.875 10.7188C9.3125 11.9896 9.84375 13.125 10.4688 14.125C11.1146 15.125 11.6042 15.625 11.9375 15.625C12.0625 15.625 12.1458 15.5833 12.1875 15.5C12.25 15.3958 12.2812 15.2083 12.2812 14.9375V12.2188C12.2604 11.9271 12.2083 11.6771 12.125 11.4688C12.0417 11.2604 11.9583 11.1146 11.875 11.0312C11.7917 10.9271 11.7083 10.8229 11.625 10.7188C11.5625 10.6146 11.5312 10.5208 11.5312 10.4375C11.5312 10.3542 11.5521 10.2812 11.5938 10.2188C11.6354 10.1562 11.6875 10.1042 11.75 10.0625C11.8333 10.0208 11.9167 10 12 10H14.9062C15.2396 10 15.4062 10.2292 15.4062 10.6875V14.3125C15.4062 14.6667 15.5 14.8438 15.6875 14.8438C15.8958 14.8438 16.1875 14.6562 16.5625 14.2812C16.9583 13.8438 17.3438 13.3125 17.7188 12.6875C18.0938 12.0625 18.375 11.5417 18.5625 11.125L18.8438 10.5312C18.9896 10.1771 19.25 10 19.625 10H21.4688C21.9688 10 22.1562 10.2292 22.0312 10.6875Z" fill="#E5E5E5"/>
<circle cx="14" cy="14" r="13" stroke="#E5E5E5" stroke-width="2"/>
</svg>
