<svg width="28" height="28" viewBox="0 0 28 28" fill="none" xmlns="http://www.w3.org/2000/svg">
<path d="M12.5547 15.8125L16.3359 13.8594L12.5547 11.8828V15.8125ZM14 9.07812C14.875 9.07812 15.7188 9.09115 16.5313 9.11719C17.349 9.13802 17.9479 9.16146 18.3281 9.1875L18.8984 9.21875C18.9036 9.21875 18.9479 9.22396 19.0313 9.23437C19.1146 9.23958 19.1745 9.2474 19.2109 9.25781C19.2474 9.26302 19.3073 9.27344 19.3906 9.28906C19.4792 9.30469 19.5547 9.32552 19.6172 9.35156C19.6797 9.3776 19.7526 9.41146 19.8359 9.45312C19.9193 9.49479 20 9.54687 20.0781 9.60937C20.1563 9.66667 20.2318 9.73437 20.3047 9.8125C20.3359 9.84375 20.375 9.89323 20.4219 9.96094C20.474 10.0234 20.5495 10.1745 20.6484 10.4141C20.7526 10.6536 20.8229 10.9167 20.8594 11.2031C20.901 11.5365 20.9323 11.8932 20.9531 12.2734C20.9792 12.6484 20.9948 12.9427 21 13.1562V13.4687V14.5312C21.0052 15.2865 20.9583 16.0417 20.8594 16.7969C20.8229 17.0833 20.7578 17.3437 20.6641 17.5781C20.5703 17.8073 20.487 17.9661 20.4141 18.0547L20.3047 18.1875C20.2318 18.2656 20.1563 18.3359 20.0781 18.3984C20 18.4557 19.9193 18.5052 19.8359 18.5469C19.7526 18.5833 19.6797 18.6146 19.6172 18.6406C19.5547 18.6667 19.4792 18.6875 19.3906 18.7031C19.3073 18.7187 19.2448 18.7318 19.2031 18.7422C19.1667 18.7474 19.1068 18.7552 19.0234 18.7656C18.9453 18.7708 18.9036 18.7734 18.8984 18.7734C17.5911 18.8724 15.9583 18.9219 14 18.9219C12.9219 18.9115 11.9844 18.8958 11.1875 18.875C10.3958 18.849 9.875 18.8281 9.625 18.8125L9.24219 18.7812L8.96094 18.75C8.77344 18.724 8.63021 18.6979 8.53125 18.6719C8.4375 18.6458 8.30469 18.5911 8.13281 18.5078C7.96615 18.4245 7.82031 18.3177 7.69531 18.1875C7.66406 18.1562 7.6224 18.1094 7.57031 18.0469C7.52344 17.9792 7.44792 17.8255 7.34375 17.5859C7.24479 17.3464 7.17708 17.0833 7.14063 16.7969C7.09896 16.4635 7.0651 16.1094 7.03906 15.7344C7.01823 15.3542 7.00521 15.0573 7 14.8438V14.5312V13.4687C6.99479 12.7135 7.04167 11.9583 7.14063 11.2031C7.17708 10.9167 7.24219 10.6589 7.33594 10.4297C7.42969 10.1953 7.51302 10.0339 7.58594 9.94531L7.69531 9.8125C7.76823 9.73437 7.84375 9.66667 7.92188 9.60937C8 9.54687 8.08073 9.49479 8.16406 9.45312C8.2474 9.41146 8.32031 9.3776 8.38281 9.35156C8.44531 9.32552 8.51823 9.30469 8.60156 9.28906C8.6901 9.27344 8.7526 9.26302 8.78906 9.25781C8.82552 9.2474 8.88542 9.23958 8.96875 9.23437C9.05208 9.22396 9.09635 9.21875 9.10156 9.21875C10.4089 9.125 12.0417 9.07812 14 9.07812Z" fill="#E5E5E5"/>
<circle cx="14" cy="14" r="13" stroke="#E5E5E5" stroke-width="2"/>
</svg>
